<?xml version="1.0" encoding="UTF-8"?><svg id="Capa_2" xmlns="http://www.w3.org/2000/svg" viewBox="0 0 180.22 50.22"><defs><style>.cls-1{fill:#003f7a;stroke-width:0px;}</style></defs><g id="GRAFICOS"><polygon class="cls-1" points="11.16 50.22 0 39.06 0 11.16 11.16 0 11.16 50.22"/><rect class="cls-1" x="27.9" y="12.27" width="11.16" height="25.67"/><polygon class="cls-1" points="63.61 39.06 52.45 50.22 52.45 12.27 63.61 12.27 63.61 39.06"/><polygon class="cls-1" points="89.28 39.06 78.12 50.22 78.12 33.48 89.28 22.32 89.28 39.06"/><polygon class="cls-1" points="117.19 22.32 106.02 33.48 106.02 12.27 117.19 12.27 117.19 22.32"/><polygon class="cls-1" points="27.9 50.22 12.28 50.22 12.28 39.05 39.06 39.05 27.9 50.22"/><polygon class="cls-1" points="50.22 11.16 27.9 11.16 39.06 0 61.38 0 50.22 11.16"/><polygon class="cls-1" points="74.77 11.16 52.45 11.16 63.61 0 85.93 0 74.77 11.16"/><polygon class="cls-1" points="117.19 11.16 77 11.16 88.16 0 106.02 0 117.19 11.16"/><rect class="cls-1" x="90.4" y="22.32" width="14.5" height="11.16"/><path class="cls-1" d="M124.37,5.66v6.7c0,1.66.51,2.18,1.16,2.18.7,0,1.16-.51,1.16-2.18v-6.7h1.62v6.44c0,2.63-1.03,3.86-2.79,3.86-1.86,0-2.77-1.25-2.77-3.79v-6.51h1.62Z"/><path class="cls-1" d="M129.92,10.56c0-.83-.03-1.43-.06-2.07h1.41l.07.86h.04c.35-.59.97-.98,1.74-.98,1.23,0,1.89.95,1.89,2.66v4.81h-1.62v-4.67c0-.73-.15-1.45-.86-1.45-.39,0-.75.3-.91.9-.05.15-.07.4-.07.66v4.55h-1.62v-5.28Z"/><path class="cls-1" d="M138.13,6.56c.02.54-.36.92-.89.92-.47,0-.85-.38-.83-.92-.02-.57.37-.93.86-.93s.86.36.86.93ZM136.47,15.84v-7.35h1.62v7.35h-1.62Z"/><path class="cls-1" d="M140.65,8.49l.73,3.67c.11.57.21,1.24.32,1.93h.03c.09-.68.2-1.3.3-1.93l.72-3.67h1.6l-1.95,7.35h-1.47l-1.98-7.35h1.7Z"/><path class="cls-1" d="M146.28,12.59c.02,1.65.79,2.1,1.65,2.1.53,0,.98-.12,1.32-.28l.23,1.16c-.45.22-1.16.35-1.84.35-1.89,0-2.92-1.37-2.92-3.66,0-2.43,1.18-3.91,2.75-3.91s2.33,1.4,2.33,3.37c0,.42-.03.66-.05.86h-3.46ZM148.3,11.44c.02-1.18-.38-1.87-.95-1.87-.69,0-1.01,1.01-1.04,1.87h2Z"/><path class="cls-1" d="M150.95,10.56c0-.69-.05-1.44-.06-2.07h1.41l.09,1.12h.04c.29-.76.89-1.24,1.5-1.24.15,0,.24.02.33.03v1.61c-.09-.03-.2-.03-.33-.03-.56,0-1.13.47-1.3,1.27-.05.18-.06.42-.06.71v3.88h-1.62v-5.28Z"/><path class="cls-1" d="M154.95,14.31c.27.18.79.4,1.27.4.57,0,.92-.32.92-.85,0-.45-.21-.76-.89-1.19-1.09-.65-1.5-1.36-1.5-2.1,0-1.27.94-2.2,2.25-2.2.61,0,1.06.17,1.42.36l-.33,1.19c-.28-.18-.62-.31-1.01-.31-.56,0-.83.36-.83.77s.18.62.89,1.07c.98.59,1.5,1.32,1.5,2.22,0,1.5-1.05,2.27-2.43,2.27-.58,0-1.24-.16-1.57-.42l.32-1.19Z"/><path class="cls-1" d="M161.39,6.56c.01.54-.36.92-.89.92-.47,0-.84-.38-.82-.92-.02-.57.37-.93.86-.93s.86.36.86.93ZM159.72,15.84v-7.35h1.62v7.35h-1.62Z"/><path class="cls-1" d="M167.76,5.39v8.46c0,.61.03,1.44.06,1.99h-1.39l-.09-.88h-.04c-.26.53-.82,1-1.53,1-1.44,0-2.24-1.56-2.24-3.77,0-2.58,1.12-3.82,2.31-3.82.6,0,1.04.29,1.28.8h.03v-3.77h1.6ZM166.16,11.29c0-.14,0-.3-.03-.45-.06-.59-.4-1.1-.88-1.1-.82,0-1.1,1.15-1.1,2.47,0,1.47.39,2.43,1.07,2.43.3,0,.68-.16.88-.9.04-.14.06-.3.06-.48v-1.95Z"/><path class="cls-1" d="M173.72,14.16c0,.57.02,1.19.09,1.68h-1.45l-.09-.76h-.03c-.38.58-.92.88-1.55.88-1.06,0-1.86-.89-1.86-2.17,0-1.89,1.6-2.69,3.26-2.7v-.19c0-.76-.3-1.3-1.1-1.3-.53,0-.96.15-1.37.4l-.3-1.1c.36-.22,1.13-.52,2.02-.52,1.9,0,2.39,1.3,2.39,2.87v2.93ZM172.14,12.15c-.63.02-1.77.18-1.77,1.47,0,.83.44,1.13.8,1.13.39,0,.78-.26.92-.84.03-.1.04-.24.04-.37v-1.38Z"/><path class="cls-1" d="M180.16,5.39v8.46c0,.61.03,1.44.06,1.99h-1.39l-.09-.88h-.05c-.25.53-.82,1-1.53,1-1.43,0-2.23-1.56-2.23-3.77,0-2.58,1.12-3.82,2.31-3.82.6,0,1.04.29,1.28.8h.03v-3.77h1.6ZM178.56,11.29c0-.14,0-.3-.03-.45-.06-.59-.39-1.1-.88-1.1-.81,0-1.1,1.15-1.1,2.47,0,1.47.39,2.43,1.07,2.43.3,0,.68-.16.88-.9.05-.14.06-.3.06-.48v-1.95Z"/><path class="cls-1" d="M124.42,21.58h-1.83v-1.48h5.28v1.48h-1.84v8.7h-1.61v-8.7Z"/><path class="cls-1" d="M129.3,27.03c.01,1.65.78,2.1,1.64,2.1.53,0,.98-.12,1.32-.27l.23,1.16c-.46.21-1.16.35-1.84.35-1.89,0-2.92-1.37-2.92-3.66,0-2.44,1.18-3.92,2.75-3.92s2.32,1.41,2.32,3.37c0,.43-.03.67-.04.86h-3.46ZM131.31,25.88c.02-1.19-.38-1.88-.95-1.88-.7,0-1.01,1.02-1.04,1.88h2Z"/><path class="cls-1" d="M137.83,30.12c-.22.12-.69.24-1.24.24-1.75,0-2.92-1.3-2.92-3.72,0-2.19,1.23-3.84,3.17-3.84.44,0,.86.1,1.06.22l-.25,1.28c-.17-.07-.42-.17-.79-.17-1.04,0-1.59,1.14-1.59,2.48,0,1.52.61,2.42,1.59,2.42.3,0,.56-.04.79-.16l.17,1.25Z"/><path class="cls-1" d="M138.69,24.99c0-.83-.03-1.42-.06-2.07h1.41l.07.86h.03c.35-.59.97-.98,1.74-.98,1.24,0,1.89.95,1.89,2.66v4.82h-1.61v-4.67c0-.73-.15-1.45-.86-1.45-.39,0-.76.31-.91.9-.04.15-.08.4-.08.67v4.55h-1.62v-5.29Z"/><path class="cls-1" d="M150.23,26.58c0,2.97-1.52,3.82-2.64,3.82-1.56,0-2.63-1.3-2.63-3.78,0-2.65,1.32-3.82,2.69-3.82,1.54,0,2.58,1.36,2.58,3.78ZM146.57,26.59c0,1.23.21,2.57,1.07,2.57.8,0,.98-1.47.98-2.57s-.18-2.54-1.02-2.54c-.88,0-1.04,1.47-1.04,2.54Z"/><path class="cls-1" d="M151.44,19.82h1.62v10.46h-1.62v-10.46Z"/><path class="cls-1" d="M159.59,26.58c0,2.97-1.53,3.82-2.64,3.82-1.56,0-2.63-1.3-2.63-3.78,0-2.65,1.31-3.82,2.68-3.82,1.54,0,2.59,1.36,2.59,3.78ZM155.93,26.59c0,1.23.22,2.57,1.07,2.57.81,0,.98-1.47.98-2.57s-.18-2.54-1.01-2.54c-.88,0-1.04,1.47-1.04,2.54ZM158.94,19.9l-1.56,2.09h-1.03l1.09-2.09h1.5Z"/><path class="cls-1" d="M165.75,29.4c0,1.74-.27,2.54-.81,3.1-.5.52-1.24.8-2.19.8-.67,0-1.29-.13-1.75-.35l.33-1.25c.34.16.81.32,1.39.32.97,0,1.44-.62,1.44-1.99v-.57h-.03c-.26.51-.79.8-1.36.8-1.49,0-2.24-1.66-2.24-3.6,0-2.56,1.16-3.86,2.4-3.86.67,0,1.1.41,1.36.91h.03l.09-.79h1.42c-.04.61-.08,1.33-.08,2.32v4.17ZM164.15,25.52c0-.18-.03-.37-.08-.52-.1-.41-.33-.83-.81-.83-.77,0-1.13,1.03-1.13,2.44,0,1.58.48,2.36,1.1,2.36.31,0,.65-.15.83-.78.07-.19.09-.4.09-.6v-2.06Z"/><path class="cls-1" d="M168.88,21c.02.55-.36.93-.89.93-.47,0-.85-.38-.83-.93-.02-.57.38-.94.86-.94s.86.36.86.94ZM167.21,30.28v-7.37h1.62v7.37h-1.62Z"/><path class="cls-1" d="M174.18,30.12c-.22.12-.69.24-1.24.24-1.75,0-2.91-1.3-2.91-3.72,0-2.19,1.22-3.84,3.17-3.84.44,0,.86.1,1.06.22l-.25,1.28c-.17-.07-.42-.17-.79-.17-1.04,0-1.59,1.14-1.59,2.48,0,1.52.61,2.42,1.59,2.42.3,0,.56-.04.79-.16l.16,1.25Z"/><path class="cls-1" d="M179.66,28.6c0,.57.01,1.19.09,1.68h-1.45l-.09-.76h-.03c-.38.57-.92.88-1.56.88-1.06,0-1.86-.89-1.86-2.18,0-1.89,1.6-2.7,3.26-2.7v-.2c0-.75-.3-1.3-1.11-1.3-.53,0-.96.15-1.38.41l-.3-1.11c.36-.23,1.14-.53,2.02-.53,1.91,0,2.39,1.31,2.39,2.87v2.94ZM178.07,26.59c-.63.02-1.77.18-1.77,1.46,0,.83.44,1.14.8,1.14.39,0,.79-.27.92-.85.03-.11.04-.24.04-.38v-1.37Z"/><path class="cls-1" d="M132.11,34.26v8.46c0,.61.03,1.44.06,1.99h-1.39l-.09-.88h-.04c-.26.53-.82,1-1.53,1-1.44,0-2.23-1.56-2.23-3.77,0-2.58,1.12-3.82,2.31-3.82.6,0,1.04.29,1.28.8h.03v-3.77h1.6ZM130.5,40.16c0-.13,0-.3-.03-.45-.06-.59-.39-1.1-.88-1.1-.81,0-1.1,1.15-1.1,2.47,0,1.47.39,2.43,1.07,2.43.3,0,.68-.16.88-.9.04-.14.05-.31.05-.48v-1.95Z"/><path class="cls-1" d="M134.87,41.46c.02,1.65.79,2.1,1.65,2.1.53,0,.98-.12,1.31-.27l.23,1.16c-.45.21-1.16.35-1.84.35-1.89,0-2.91-1.37-2.91-3.65,0-2.44,1.18-3.91,2.75-3.91s2.33,1.4,2.33,3.37c0,.42-.03.66-.05.86h-3.46ZM136.88,40.31c.02-1.18-.38-1.87-.95-1.87-.7,0-1.01,1.01-1.04,1.87h1.99Z"/><path class="cls-1" d="M142.07,34.68c.53-.12,1.18-.19,1.9-.19,1.07,0,1.94.19,2.54.78.55.51.82,1.3.82,2.17,0,1.03-.29,1.74-.75,2.29-.6.71-1.59,1.04-2.45,1.04h-.45v3.96h-1.6v-10.03ZM143.68,39.43c.11.02.24.02.39.02,1.06,0,1.65-.72,1.65-1.9,0-.95-.4-1.75-1.49-1.75-.21,0-.42.03-.55.07v3.56Z"/><path class="cls-1" d="M149.36,41.46c.02,1.65.79,2.1,1.65,2.1.53,0,.98-.12,1.32-.27l.22,1.16c-.45.21-1.16.35-1.84.35-1.89,0-2.91-1.37-2.91-3.65,0-2.44,1.18-3.91,2.75-3.91s2.33,1.4,2.33,3.37c0,.42-.03.66-.05.86h-3.46ZM151.38,40.31c.02-1.18-.38-1.87-.96-1.87-.69,0-1.01,1.01-1.04,1.87h2Z"/><path class="cls-1" d="M154.03,39.43c0-.69-.04-1.44-.06-2.07h1.4l.09,1.12h.05c.29-.76.89-1.24,1.49-1.24.16,0,.24.02.33.03v1.61c-.09-.03-.2-.03-.33-.03-.55,0-1.13.47-1.3,1.27-.04.18-.06.42-.06.71v3.88h-1.61v-5.28Z"/><path class="cls-1" d="M159.3,41.46c.02,1.65.78,2.1,1.65,2.1.53,0,.98-.12,1.31-.27l.23,1.16c-.45.21-1.16.35-1.84.35-1.89,0-2.91-1.37-2.91-3.65,0-2.44,1.18-3.91,2.75-3.91s2.32,1.4,2.32,3.37c0,.42-.03.66-.04.86h-3.46ZM161.31,40.31c.02-1.18-.38-1.87-.95-1.87-.69,0-1.02,1.01-1.04,1.87h2Z"/><path class="cls-1" d="M165.63,35.43c.02.55-.37.92-.89.92-.47,0-.84-.37-.83-.92-.01-.57.38-.93.86-.93s.86.36.86.93ZM163.97,44.71v-7.36h1.61v7.36h-1.61Z"/><path class="cls-1" d="M167.07,39.43c0-.69-.05-1.44-.06-2.07h1.41l.09,1.12h.04c.29-.76.89-1.24,1.5-1.24.15,0,.24.02.33.03v1.61c-.09-.03-.19-.03-.33-.03-.56,0-1.13.47-1.3,1.27-.05.18-.06.42-.06.71v3.88h-1.62v-5.28Z"/><path class="cls-1" d="M175.63,43.03c0,.57.01,1.19.09,1.68h-1.45l-.09-.75h-.03c-.38.57-.92.87-1.55.87-1.06,0-1.86-.89-1.86-2.18,0-1.89,1.6-2.69,3.26-2.7v-.19c0-.76-.3-1.3-1.1-1.3-.53,0-.96.15-1.38.4l-.3-1.09c.36-.24,1.13-.53,2.03-.53,1.91,0,2.39,1.3,2.39,2.87v2.93ZM174.04,41.02c-.64.02-1.77.19-1.77,1.47,0,.83.44,1.13.8,1.13.39,0,.79-.26.92-.84.03-.11.05-.24.05-.38v-1.37Z"/></g></svg>