<?xml version="1.0" encoding="UTF-8"?><svg id="Capa_2" xmlns="http://www.w3.org/2000/svg" viewBox="0 0 117.54 78.18"><defs><style>.cls-1{fill:#003f7a;stroke-width:0px;}</style></defs><g id="GRAFICOS"><polygon class="cls-1" points="11.34 50.21 .18 39.06 .18 11.16 11.34 0 11.34 50.21"/><rect class="cls-1" x="28.08" y="12.27" width="11.16" height="25.67"/><polygon class="cls-1" points="63.78 39.06 52.63 50.21 52.63 12.27 63.78 12.27 63.78 39.06"/><polygon class="cls-1" points="89.46 39.06 78.3 50.22 78.3 33.48 89.46 22.32 89.46 39.06"/><polygon class="cls-1" points="117.35 22.32 106.2 33.48 106.2 12.27 117.35 12.27 117.35 22.32"/><polygon class="cls-1" points="28.08 50.21 12.46 50.21 12.46 39.06 39.24 39.06 28.08 50.21"/><polygon class="cls-1" points="50.4 11.16 28.08 11.16 39.24 0 61.56 0 50.4 11.16"/><polygon class="cls-1" points="74.95 11.16 52.63 11.16 63.78 0 86.11 0 74.95 11.16"/><polygon class="cls-1" points="117.35 11.16 77.18 11.16 88.34 0 106.2 0 117.35 11.16"/><rect class="cls-1" x="90.57" y="22.32" width="14.51" height="11.16"/><path class="cls-1" d="M1.62,55.79v6.71c0,1.65.51,2.18,1.16,2.18.7,0,1.17-.51,1.17-2.18v-6.71h1.62v6.44c0,2.63-1.03,3.87-2.79,3.87-1.86,0-2.77-1.25-2.77-3.79v-6.51h1.62Z"/><path class="cls-1" d="M7.16,60.69c0-.83-.03-1.42-.06-2.07h1.4l.08.86h.03c.35-.59.97-.98,1.74-.98,1.24,0,1.89.95,1.89,2.66v4.82h-1.62v-4.67c0-.73-.15-1.45-.86-1.45-.39,0-.76.3-.91.91-.04.15-.08.39-.08.66v4.55h-1.62v-5.29Z"/><path class="cls-1" d="M15.37,56.7c.02.54-.36.92-.89.92-.47,0-.85-.38-.83-.92-.02-.57.38-.94.86-.94s.86.36.86.94ZM13.71,65.97v-7.36h1.62v7.36h-1.62Z"/><path class="cls-1" d="M17.9,58.62l.72,3.67c.11.57.21,1.24.32,1.93h.03c.09-.68.2-1.3.3-1.93l.71-3.67h1.6l-1.95,7.36h-1.47l-1.98-7.36h1.71Z"/><path class="cls-1" d="M23.52,62.72c.02,1.65.79,2.1,1.65,2.1.53,0,.98-.12,1.31-.27l.22,1.16c-.45.21-1.16.35-1.84.35-1.89,0-2.91-1.37-2.91-3.65,0-2.43,1.18-3.91,2.75-3.91s2.33,1.4,2.33,3.37c0,.42-.03.67-.05.86h-3.46ZM25.54,61.58c.02-1.18-.38-1.87-.95-1.87-.69,0-1.01,1.01-1.04,1.87h1.99Z"/><path class="cls-1" d="M28.19,60.69c0-.68-.04-1.44-.06-2.07h1.41l.09,1.12h.05c.29-.75.89-1.24,1.5-1.24.15,0,.24.01.33.03v1.62c-.09-.03-.19-.03-.33-.03-.56,0-1.13.47-1.3,1.27-.04.18-.06.42-.06.71v3.88h-1.62v-5.29Z"/><path class="cls-1" d="M32.19,64.45c.27.18.79.39,1.27.39.58,0,.92-.32.92-.85,0-.45-.21-.75-.89-1.19-1.09-.65-1.5-1.36-1.5-2.1,0-1.27.94-2.2,2.25-2.2.6,0,1.06.16,1.42.36l-.33,1.19c-.29-.18-.62-.32-1.01-.32-.56,0-.83.36-.83.77s.18.62.89,1.07c.98.59,1.5,1.31,1.5,2.22,0,1.5-1.04,2.27-2.43,2.27-.57,0-1.24-.17-1.57-.42l.32-1.19Z"/><path class="cls-1" d="M38.62,56.7c.02.54-.36.92-.89.92-.47,0-.85-.38-.83-.92-.02-.57.38-.94.86-.94s.86.36.86.94ZM36.96,65.97v-7.36h1.62v7.36h-1.62Z"/><path class="cls-1" d="M45,55.52v8.46c0,.61.03,1.44.06,2h-1.39l-.09-.87h-.05c-.26.53-.81.99-1.53.99-1.43,0-2.23-1.56-2.23-3.78,0-2.58,1.12-3.82,2.31-3.82.6,0,1.04.29,1.28.8h.03v-3.78h1.6ZM43.4,61.43c0-.14,0-.3-.03-.45-.06-.59-.39-1.1-.88-1.1-.82,0-1.1,1.15-1.1,2.46,0,1.48.39,2.43,1.07,2.43.3,0,.68-.17.88-.91.04-.14.06-.3.06-.48v-1.95Z"/><path class="cls-1" d="M50.96,64.3c0,.57.02,1.19.09,1.68h-1.45l-.09-.76h-.03c-.38.57-.92.88-1.56.88-1.06,0-1.86-.89-1.86-2.18,0-1.89,1.6-2.69,3.26-2.7v-.2c0-.75-.3-1.3-1.1-1.3-.53,0-.97.15-1.37.41l-.3-1.1c.36-.23,1.13-.53,2.02-.53,1.91,0,2.39,1.3,2.39,2.87v2.93ZM49.38,62.29c-.63.02-1.77.18-1.77,1.46,0,.83.44,1.13.8,1.13.39,0,.78-.27.92-.85.03-.11.04-.24.04-.38v-1.37Z"/><path class="cls-1" d="M57.4,55.52v8.46c0,.61.03,1.44.06,2h-1.39l-.09-.87h-.04c-.26.53-.82.99-1.53.99-1.43,0-2.24-1.56-2.24-3.78,0-2.58,1.12-3.82,2.31-3.82.6,0,1.04.29,1.28.8h.03v-3.78h1.6ZM55.79,61.43c0-.14,0-.3-.03-.45-.06-.59-.39-1.1-.88-1.1-.81,0-1.1,1.15-1.1,2.46,0,1.48.39,2.43,1.07,2.43.3,0,.68-.17.88-.91.05-.14.06-.3.06-.48v-1.95Z"/><path class="cls-1" d="M62.21,57.27h-1.83v-1.48h5.28v1.48h-1.84v8.7h-1.62v-8.7Z"/><path class="cls-1" d="M67.09,62.72c.02,1.65.79,2.1,1.65,2.1.53,0,.98-.12,1.31-.27l.23,1.16c-.45.21-1.16.35-1.84.35-1.89,0-2.91-1.37-2.91-3.65,0-2.43,1.18-3.91,2.75-3.91s2.33,1.4,2.33,3.37c0,.42-.03.67-.05.86h-3.46ZM69.1,61.58c.01-1.18-.38-1.87-.95-1.87-.69,0-1.01,1.01-1.04,1.87h1.99Z"/><path class="cls-1" d="M75.62,65.82c-.23.12-.69.24-1.24.24-1.75,0-2.92-1.3-2.92-3.71,0-2.19,1.22-3.84,3.17-3.84.44,0,.86.11,1.06.21l-.24,1.29c-.16-.06-.42-.17-.78-.17-1.04,0-1.59,1.13-1.59,2.48,0,1.51.61,2.42,1.59,2.42.3,0,.56-.04.78-.17l.17,1.26Z"/><path class="cls-1" d="M76.48,60.69c0-.83-.03-1.42-.06-2.07h1.4l.08.86h.03c.35-.59.97-.98,1.74-.98,1.24,0,1.88.95,1.88,2.66v4.82h-1.62v-4.67c0-.73-.15-1.45-.86-1.45-.39,0-.75.3-.91.91-.04.15-.08.39-.08.66v4.55h-1.62v-5.29Z"/><path class="cls-1" d="M88.02,62.27c0,2.98-1.53,3.82-2.64,3.82-1.56,0-2.63-1.3-2.63-3.78,0-2.66,1.31-3.82,2.69-3.82,1.54,0,2.58,1.36,2.58,3.77ZM84.36,62.29c0,1.24.21,2.57,1.07,2.57.8,0,.98-1.47.98-2.57s-.18-2.54-1.01-2.54c-.88,0-1.04,1.46-1.04,2.54Z"/><path class="cls-1" d="M89.22,55.52h1.62v10.45h-1.62v-10.45Z"/><path class="cls-1" d="M97.38,62.27c0,2.98-1.52,3.82-2.64,3.82-1.56,0-2.63-1.3-2.63-3.78,0-2.66,1.32-3.82,2.69-3.82,1.54,0,2.58,1.36,2.58,3.77ZM93.72,62.29c0,1.24.21,2.57,1.07,2.57.8,0,.98-1.47.98-2.57s-.18-2.54-1.01-2.54c-.87,0-1.04,1.46-1.04,2.54ZM96.73,55.61l-1.56,2.08h-1.03l1.09-2.08h1.5Z"/><path class="cls-1" d="M103.54,65.1c0,1.74-.27,2.54-.81,3.1-.5.51-1.24.8-2.19.8-.66,0-1.29-.14-1.75-.35l.33-1.25c.33.17.8.32,1.39.32.97,0,1.44-.62,1.44-1.99v-.58h-.03c-.26.51-.79.8-1.36.8-1.5,0-2.24-1.66-2.24-3.59,0-2.57,1.16-3.85,2.4-3.85.67,0,1.1.41,1.36.91h.03l.09-.79h1.42c-.04.61-.08,1.33-.08,2.31v4.17ZM101.94,61.23c0-.18-.03-.38-.08-.53-.1-.41-.33-.83-.82-.83-.77,0-1.13,1.03-1.13,2.43,0,1.59.49,2.36,1.1,2.36.3,0,.65-.15.83-.77.08-.2.09-.41.09-.6v-2.05Z"/><path class="cls-1" d="M106.66,56.7c.02.54-.36.92-.89.92-.47,0-.84-.38-.83-.92-.01-.57.38-.94.86-.94s.86.36.86.94ZM105,65.97v-7.36h1.62v7.36h-1.62Z"/><path class="cls-1" d="M111.96,65.82c-.23.12-.7.24-1.24.24-1.75,0-2.92-1.3-2.92-3.71,0-2.19,1.23-3.84,3.17-3.84.44,0,.86.11,1.06.21l-.24,1.29c-.17-.06-.42-.17-.79-.17-1.04,0-1.58,1.13-1.58,2.48,0,1.51.6,2.42,1.58,2.42.3,0,.56-.04.79-.17l.17,1.26Z"/><path class="cls-1" d="M117.44,64.3c0,.57.02,1.19.09,1.68h-1.45l-.09-.76h-.03c-.38.57-.92.88-1.56.88-1.06,0-1.86-.89-1.86-2.18,0-1.89,1.6-2.69,3.27-2.7v-.2c0-.75-.3-1.3-1.11-1.3-.53,0-.97.15-1.37.41l-.3-1.1c.36-.23,1.13-.53,2.02-.53,1.9,0,2.39,1.3,2.39,2.87v2.93ZM115.86,62.29c-.63.02-1.76.18-1.76,1.46,0,.83.44,1.13.8,1.13.39,0,.79-.27.92-.85.03-.11.04-.24.04-.38v-1.37Z"/><path class="cls-1" d="M39.38,67.61v8.46c0,.6.03,1.44.06,1.99h-1.39l-.09-.88h-.05c-.26.53-.81,1-1.53,1-1.43,0-2.23-1.56-2.23-3.78,0-2.58,1.12-3.82,2.31-3.82.6,0,1.04.29,1.28.8h.03v-3.78h1.6ZM37.78,73.51c0-.13,0-.3-.03-.45-.06-.59-.39-1.1-.87-1.1-.82,0-1.11,1.15-1.11,2.46,0,1.48.39,2.43,1.07,2.43.3,0,.68-.17.88-.91.04-.14.06-.3.06-.48v-1.95Z"/><path class="cls-1" d="M42.14,74.82c.02,1.65.79,2.1,1.65,2.1.53,0,.98-.12,1.31-.27l.23,1.16c-.45.21-1.16.35-1.84.35-1.89,0-2.92-1.37-2.92-3.65,0-2.43,1.18-3.91,2.75-3.91s2.32,1.4,2.32,3.37c0,.42-.03.66-.05.86h-3.46ZM44.15,73.67c.01-1.18-.38-1.87-.95-1.87-.7,0-1.01,1.01-1.04,1.87h1.99Z"/><path class="cls-1" d="M49.35,68.03c.53-.12,1.18-.2,1.9-.2,1.07,0,1.93.2,2.54.77.54.51.82,1.3.82,2.18,0,1.03-.29,1.74-.76,2.28-.61.71-1.59,1.04-2.45,1.04h-.45v3.96h-1.6v-10.03ZM50.95,72.78c.12.03.24.03.39.03,1.06,0,1.65-.72,1.65-1.9,0-.95-.39-1.75-1.48-1.75-.21,0-.42.03-.56.08v3.55Z"/><path class="cls-1" d="M56.64,74.82c.02,1.65.79,2.1,1.65,2.1.53,0,.98-.12,1.31-.27l.23,1.16c-.45.21-1.16.35-1.84.35-1.89,0-2.91-1.37-2.91-3.65,0-2.43,1.18-3.91,2.75-3.91s2.32,1.4,2.32,3.37c0,.42-.03.66-.04.86h-3.46ZM58.65,73.67c.02-1.18-.38-1.87-.95-1.87-.69,0-1.01,1.01-1.04,1.87h1.99Z"/><path class="cls-1" d="M61.3,72.78c0-.68-.04-1.43-.06-2.07h1.4l.09,1.12h.04c.29-.75.89-1.24,1.5-1.24.15,0,.24.02.33.03v1.62c-.09-.03-.2-.03-.33-.03-.56,0-1.13.47-1.3,1.27-.04.18-.06.42-.06.71v3.88h-1.62v-5.29Z"/><path class="cls-1" d="M66.57,74.82c.02,1.65.79,2.1,1.65,2.1.53,0,.98-.12,1.31-.27l.22,1.16c-.45.21-1.16.35-1.84.35-1.88,0-2.91-1.37-2.91-3.65,0-2.43,1.18-3.91,2.75-3.91s2.33,1.4,2.33,3.37c0,.42-.03.66-.04.86h-3.46ZM68.58,73.67c.02-1.18-.38-1.87-.95-1.87-.69,0-1.01,1.01-1.04,1.87h1.99Z"/><path class="cls-1" d="M72.9,68.79c.01.55-.36.92-.89.92-.47,0-.85-.38-.83-.92-.02-.57.38-.94.86-.94s.86.36.86.94ZM71.24,78.06v-7.36h1.61v7.36h-1.61Z"/><path class="cls-1" d="M74.33,72.78c0-.68-.04-1.43-.06-2.07h1.4l.09,1.12h.05c.29-.75.89-1.24,1.5-1.24.15,0,.24.02.33.03v1.62c-.09-.03-.2-.03-.33-.03-.56,0-1.14.47-1.3,1.27-.04.18-.06.42-.06.71v3.88h-1.62v-5.29Z"/><path class="cls-1" d="M82.9,76.39c0,.58.02,1.2.09,1.68h-1.45l-.09-.76h-.04c-.37.58-.92.87-1.56.87-1.06,0-1.86-.89-1.86-2.17,0-1.89,1.6-2.69,3.26-2.7v-.2c0-.76-.3-1.3-1.1-1.3-.53,0-.97.15-1.37.41l-.3-1.1c.36-.23,1.13-.53,2.02-.53,1.9,0,2.39,1.3,2.39,2.87v2.93ZM81.31,74.38c-.64.01-1.77.18-1.77,1.46,0,.83.44,1.13.8,1.13.39,0,.79-.27.92-.85.03-.1.05-.24.05-.37v-1.37Z"/></g></svg>